<svg width="1080" height="1080" viewBox="0 0 1080 1080" fill="none" xmlns="http://www.w3.org/2000/svg">
<mask id="mask0_237_337" style="mask-type:luminance" maskUnits="userSpaceOnUse" x="0" y="0" width="1080" height="1080">
<path d="M1080 0H0V1080H1080V0Z" fill="white"/>
</mask>
<g mask="url(#mask0_237_337)">
<path d="M1085.24 -4.11005H-2.76001V1083.89H1085.24V-4.11005Z" fill="#64A8AF"/>
<path d="M797.94 453.71C797.94 453.71 813.86 445.92 832.31 453.71C832.31 453.71 825.03 460.82 797.94 453.71Z" fill="#E2A874"/>
<path d="M85.25 1186.06C85.25 1186.06 145.18 928.42 207.1 889.47C269.02 850.52 427.83 793.59 449.8 777.61C471.77 761.63 526.71 716.68 529.7 710.69C532.7 704.7 549.22 618.8 549.22 618.8L561.66 540C561.66 540 578.64 487.99 571.65 489.96C564.66 491.93 738.45 651.76 738.45 651.76L840.33 652.76C840.33 652.76 803.38 751.64 844.33 730.66C885.28 709.69 1005.07 670.73 1088 690.71V1186.06H85.25Z" fill="#F4BC84"/>
<path d="M565.51 829.93C611.51 830.35 661.22 814.79 701.27 837.42C704.19 839.07 707.15 841.06 708.6 844.09C711.72 850.58 706.57 857.96 701.14 862.69C671.52 888.47 628.29 889.51 589.07 887.56C516.04 883.94 443.28 874.69 371.67 859.91C352.92 856.04 330.02 838.89 344.73 817.35C354.38 803.21 379.2 805.03 394.13 804.86C452.49 804.23 507.29 829.4 565.49 829.93H565.51Z" fill="#E2A874"/>
<path d="M1041.13 705.2C1044.27 704.33 1047.57 703.52 1050.75 704.25C1061.78 706.78 1060.95 723.02 1055.85 733.12C1045.72 753.18 1029.44 769.57 1011.55 783.17C975.1 810.87 931.91 827.58 887.85 838.77C865.45 844.46 842.69 848.68 819.89 852.39C805.07 854.8 766.99 867.17 753.32 859.82C726.5 845.4 769.12 814.89 785.67 809.11C827.59 794.48 867.38 789.32 908.04 768.04C951.48 745.31 993.46 718.4 1041.15 705.2H1041.13Z" fill="#E2A874"/>
<path d="M710.18 712.92C701.81 702.11 695.47 689.8 691.07 676.87C688.83 670.29 687.09 663.54 685.81 656.7C684.63 650.37 682.72 642.8 683.99 636.4C686.34 639.03 687.96 641.28 691.32 642.35C695 643.52 698.49 644.88 702 646.54C709.35 650.01 716.38 654.09 723.43 658.12C737.13 665.96 751.31 673.93 767.16 676.26C774.91 677.4 781.36 680.53 788.78 682.52C800.01 685.52 811.22 683.87 822.71 683.21C823.93 683.14 825.51 683.32 825.81 684.5C825.96 685.1 825.69 685.71 825.4 686.25C823.23 690.27 819.74 693.39 816.13 696.19C812.7 698.84 809.11 701.28 805.38 703.48C797.33 708.23 797.78 717.43 798.53 725.98C800.27 745.65 787.11 749.95 769.6 747.32C743.13 743.34 727.5 735.27 710.19 712.93L710.18 712.92Z" fill="#D19C6F"/>
<path d="M584.96 550.41C584.96 550.41 515.05 408.58 568.98 272.75C622.91 136.92 698.82 64.01 741.77 56.02C758.27 52.95 775.64 53.59 792.28 55.05C814.07 56.96 835.81 61.08 856.6 67.95C877.39 74.82 896.25 83.74 911.67 98.14C922.36 108.12 927.85 120.61 935.75 132.57C938.59 136.87 941.43 141.18 943.7 145.8C946.24 150.97 948.02 156.49 950.52 161.68C953.19 167.22 956.75 172.66 956.91 178.81C957.05 183.84 956.73 188.04 958.5 192.85C960.53 198.38 962.6 203.88 964.53 209.45C972.65 232.84 975.97 256.6 981.56 280.5C996.7 345.29 1000.26 412.77 991.94 478.78C991.69 480.76 991.43 482.74 991.16 484.72C986.73 517.1 979.08 549.99 960.52 576.9C953.17 587.56 944.26 597.04 935.19 606.26C918.67 623.05 901.46 639.15 883.6 654.51C876.81 660.35 869.88 666.12 862.07 670.49C811.85 698.61 762.33 683.97 715.81 657.28C647.89 618.33 628.92 588.36 628.92 588.36L584.97 550.41H584.96Z" fill="#F4BC84"/>
<path d="M843.85 461.84C839.09 456.82 831.25 454.36 831.17 454.34L831.47 453.42C831.8 453.52 839.65 455.97 844.59 461.19L843.85 461.84Z" fill="#E2A874"/>
<path d="M642.08 339.01C644.72 335.94 649.08 331.34 649.58 332.4C655.35 344.59 653.95 358.77 655.53 372.17C657.19 386.23 662.2 399.65 667.17 412.9C676.37 437.42 684.59 461.78 689.75 487.55C693.19 504.74 697.2 527.89 684.68 542.56C661.96 569.18 640.6 581.45 662.01 602.91C683.42 624.37 715.8 657.28 715.8 657.28C715.8 657.28 626.7 614.54 619.04 553.53C618.42 548.6 618.09 543.63 617.9 538.66C616.43 501.6 620.91 464.09 625.46 427.38C627.63 409.88 630.07 392.41 632.72 374.98C633.72 368.4 634.32 361.54 635.84 355.05C636.87 350.68 638.01 345.48 640.09 341.51C640.23 341.23 641.02 340.24 642.08 339.01Z" fill="#E2A874"/>
<path d="M850.079 722.531L673.919 916.604L674.66 917.276L850.819 723.203L850.079 722.531Z" fill="#E6E6E6"/>
<path d="M850.079 722.531L673.919 916.604L674.66 917.276L850.819 723.203L850.079 722.531Z" fill="#E6E6E6"/>
<path d="M674.67 917.93L673.19 916.58L673.53 916.21L850.07 721.81L851.55 723.15L851.22 723.52L674.67 917.93Z" fill="#E6E6E6"/>
<path d="M689.21 910.8C687.89 907.67 684.45 905.89 681.06 906.73C677.67 907.57 675.45 910.75 675.74 914.13C671.51 915.45 668.74 919.69 670.24 925.39C672.49 934.01 688.9 938.45 688.9 938.45C688.9 938.45 692.02 935.56 694.87 931.59C697.74 927.61 700.34 922.54 699.33 918.21C698 912.47 693.58 910.01 689.22 910.81L689.21 910.8ZM681.77 909.64C683.65 909.17 685.55 910.12 686.37 911.8C685.15 912.44 684 913.36 682.99 914.57C681.53 913.97 680.08 913.69 678.7 913.69C678.64 911.82 679.88 910.1 681.77 909.64Z" fill="#E6E6E6"/>
<path d="M510.988 757.166L510.29 757.882L673.901 917.321L674.599 916.605L510.988 757.166Z" fill="#E6E6E6"/>
<path d="M510.988 757.166L510.29 757.882L673.901 917.321L674.599 916.605L510.988 757.166Z" fill="#E6E6E6"/>
<path d="M673.93 917.95L673.57 917.6L509.59 757.83L510.99 756.4L511.35 756.75L675.33 916.52L673.94 917.95H673.93ZM511.01 757.81L669.49 912.22L511.01 757.8V757.81Z" fill="#E6E6E6"/>
<path d="M667.88 905.95C665.67 903.38 661.85 902.73 658.87 904.57C655.89 906.41 654.76 910.12 656.07 913.25C652.45 915.8 651.11 920.69 654.28 925.65C659.06 933.17 676.04 932.37 676.04 932.37C676.04 932.37 678.12 928.66 679.62 924.01C681.13 919.34 682.06 913.72 679.77 909.91C676.75 904.85 671.78 903.87 667.88 905.96V905.95ZM660.45 907.12C662.1 906.1 664.2 906.41 665.49 907.77C664.52 908.76 663.71 909.99 663.12 911.45C661.55 911.33 660.08 911.5 658.77 911.93C658.14 910.17 658.8 908.15 660.45 907.13V907.12Z" fill="#E6E6E6"/>
<path d="M1023.54 1080C1023.54 1080 1054.53 1057.86 1049.88 1042.37C1045.23 1026.88 1023.54 989.69 1023.54 989.69C1023.54 989.69 984.81 896.73 975.51 859.55C966.21 822.37 963.12 751.1 963.12 751.1V692.23H980.16C980.16 692.23 975.51 800.68 983.26 837.86C991.01 875.04 1029.74 971.1 1029.74 971.1C1029.74 971.1 1068.79 1064.06 1088 1067.16V1095.05H1025.56L1023.54 1080.01V1080Z" fill="black"/>
<path d="M424.29 1080C424.29 1080 383.54 895.93 378.1 859.25C372.67 822.57 364.52 806.27 364.52 806.27L348.22 811.7C348.22 811.7 391.69 952.98 410.71 1080H424.29Z" fill="black"/>
<path d="M360.36 853.64L376.62 850.13L382.78 885.14L370.2 890.07L360.36 853.64Z" fill="white"/>
<path d="M379.78 927.79L390.9 925.19L398.98 963.5H388.24L379.78 927.79Z" fill="white"/>
<path d="M395.04 994.43H405.61L412.54 1026.42H401.5L395.04 994.43Z" fill="white"/>
<path d="M407.34 1058.88H419.63L424.29 1080H410.7L407.34 1058.88Z" fill="white"/>
<path d="M963.12 723.93H979.19L978.78 762.36L963.81 763.87L963.12 723.93Z" fill="white"/>
<path d="M966.62 800.1H979.54C979.54 800.1 981.13 828.97 983.26 837.86L971.84 841.47C971.84 841.47 965.56 808.45 966.62 800.1Z" fill="white"/>
<path d="M980.87 877.76L993.48 873.44L1004.78 905.83L992.83 911.79L980.87 877.76Z" fill="white"/>
<path d="M1004.78 943.09L1017.52 939.91L1028.39 967.73L1016.58 972.71L1004.78 943.09Z" fill="white"/>
<path d="M1034.78 1009.86L1045.13 1004.88L1060.84 1034.9L1049.88 1042.37L1034.78 1009.86Z" fill="white"/>
<path d="M438.24 914.71C440.82 910.31 444.42 906.4 448.42 903.25C485.51 874.13 526.24 902.39 508.34 945.84C503.05 958.67 491.8 968.35 479.29 974.38C466.78 980.4 452.98 983.15 439.29 985.45C470.98 991.38 508.48 977.8 532.85 957.31C565.19 930.12 573.32 869.24 574.63 829.97C575 818.82 574.47 806.91 568.09 797.77C558.72 784.37 540.16 781.43 523.82 782.06C507.48 782.69 490.44 785.59 475.25 779.52C450.15 769.49 439.95 738.62 441.28 711.62C442.61 684.62 452.19 658.51 453.24 631.5C453.45 626.07 453.23 620.31 450.31 615.72C442.78 603.89 424.89 607.83 411.33 604.26C396.5 600.35 386.11 585.95 383.32 570.88C380.53 555.8 384.14 540.24 389.53 525.88C413.92 460.93 475.16 406.54 470.41 337.33C469.72 327.3 467.6 317.27 468.73 307.28C470.12 295.01 476.31 283.85 482.72 273.29C504.57 237.25 530.45 203.66 559.72 173.34C578.1 154.3 597.94 136.38 613.01 114.63C624.49 98.05 652.24 44.32 624.69 31.88C564.35 4.65 504.8 24.15 452.45 58.36C452.45 58.36 423.01 84.53 408.28 122.98C402.1 139.12 393.01 154.09 382.58 167.83C378.68 172.97 374.57 177.95 370.25 182.74C366.35 187.07 362.57 190.96 357.41 193.87C343.15 201.92 327.73 208.38 311.77 212.13C311.77 212.13 364.12 207.22 390.29 179.41C390.29 179.41 390.29 218.67 311.77 246.48C271.51 260.74 288.9 312.02 261.05 334.82C246.78 346.5 233.58 365.95 231.61 384.68C230.67 393.59 232.53 400.51 235.11 408.98C242.24 432.4 244.28 450.14 230.41 471.48C222.33 483.92 205.97 508.12 187.89 498.59C181.84 495.4 178.12 488.28 178.96 481.5C177.54 503.23 190.92 521.29 214.88 519.94C228.87 519.15 242 509.62 247.08 496.56C254.66 522.49 205.73 553.48 189.36 565.95C162.8 586.18 146.31 625.78 176.13 651.41C163.59 640.63 170.64 608.52 179.12 597.54C190.31 583.05 208.22 574.77 223.04 564.72C217.44 572.34 211.84 579.95 206.24 587.57C199.99 596.08 196.46 607.93 194.8 620.57C191.54 645.48 192.56 668.76 190.11 693.47C187.71 717.66 156.91 739.34 136 746.96C142.28 744.67 154.63 748.05 161.99 746.76C171.65 745.07 180.56 741.39 189.24 736.92C204.3 729.16 210.87 715.91 214.19 699.86C219.51 713.86 220.63 734.12 215.08 748.95C210.4 761.46 200.72 771.46 194.99 783.52C185.54 803.37 188.16 828.42 201.52 845.88C201.94 829.48 204.54 809.43 210.54 794.06C216.69 778.32 231.56 767.63 236.71 751.38C239.74 773.02 242.77 794.65 245.8 816.29C248.95 838.81 246.16 860.76 224.99 873.08C250.45 858.28 274.56 849.23 283.26 816.98C283.4 816.47 283.53 815.96 283.66 815.45C284.11 813.67 287.79 813.1 289.22 814.24C303.62 825.71 306.38 846.24 307.01 864.64C307.53 880 301.7 900.98 308.32 914.58C322.35 943.38 347.93 931.53 372.71 926.41C385.79 923.71 396.64 922.19 408.05 930.36C423.05 941.11 431.54 960.96 455.16 948.36C444.87 950.54 434.85 940.58 434.24 930.08C433.92 924.66 435.51 919.43 438.26 914.74L438.24 914.71Z" fill="#A67C52"/>
<path d="M442.25 898.71C444.73 894.49 448.18 890.72 452.03 887.7C487.67 859.71 526.82 886.87 509.61 928.63C504.53 940.96 493.72 950.27 481.7 956.06C469.68 961.85 456.41 964.49 443.25 966.7C473.71 972.4 509.74 959.35 533.16 939.65C557.92 918.83 551.81 897.62 561.77 869.9C571.45 842.95 615.7 835.23 635.81 815.27C661.7 789.56 670.21 754.27 664.99 718.7C664.99 718.7 611.54 583.5 642.98 563.06C674.42 542.62 696.43 533.19 679.14 484.45C670.36 459.7 663 434.43 656.75 408.92C650.76 384.47 650.74 362.12 652.32 336.85C653.95 310.74 657.86 284.39 666.56 259.63C687 201.46 715.3 162.16 729.45 114.99C743.6 67.83 878.8 89.84 878.8 89.84C878.8 89.84 924.39 100.84 943.26 152.73C962.13 204.61 971.56 264.35 971.56 269.07C971.56 273.79 974.7 305.17 966.86 322.48C960.88 335.69 958.21 350.6 955.78 364.8C953.58 377.6 950.65 391.73 951.92 404.62C953 415.59 957.09 426.01 959.67 436.72C965.16 459.58 956.92 488.27 944.84 508.04C933.91 525.92 924.83 545.03 914.14 562.91C903 581.55 885.91 595.22 878.81 616.52C872.52 635.39 861.52 679.41 811.21 687.27C760.97 695.12 779.71 745.3 779.77 745.44C794.77 785.52 817.21 798.37 853.6 820.19C871.14 830.7 873.58 837.46 881.95 853.34C887.87 864.57 903.18 869.86 913.41 876.13C926.53 884.18 937 895.76 937.62 911.94C937.72 914.67 937.26 917.89 934.85 919.18C943.7 914.44 952.7 910.59 953.77 899.15C954.48 891.53 950.63 883.75 952.66 876.37C956.59 862.1 973.09 869.34 981.22 860.6C990.49 850.62 985.16 833.15 996.09 823.27C1005.68 814.61 1022 814.31 1033.72 810.21C1054.55 802.92 1072.38 788.36 1062.76 764.3C1043.89 717.14 1025.03 693.55 1025.03 693.55C1025.03 693.55 1067.48 663.68 1036.03 559.92C1036.03 559.92 1056.47 530.05 1028.17 457.73C1028.17 457.73 1020.31 402.71 1031.31 377.55C1042.31 352.39 1050.18 284.01 1009.3 210.9L968.42 137.8C968.42 137.8 1040.74 -21.78 847.37 -28.86C654 -35.93 559.63 3.36998 540 36.38C540 36.38 540.81 42.67 518.8 45.81C496.79 48.95 455.91 75.68 455.91 75.68C455.91 75.68 427.61 100.83 413.46 137.78C407.52 153.3 398.78 167.68 388.76 180.88C385.01 185.82 381.06 190.6 376.91 195.21C373.16 199.37 369.53 203.11 364.57 205.9C350.86 213.64 336.05 219.84 320.7 223.45C320.7 223.45 371.01 218.73 396.16 192.01C396.16 192.01 396.16 229.74 320.7 256.47C282.01 270.17 298.72 319.46 271.95 341.37C258.24 352.6 245.54 371.29 243.66 389.28C242.76 397.84 244.55 404.5 247.02 412.63C253.87 435.14 255.83 452.18 242.5 472.7C234.73 484.66 219.02 507.92 201.63 498.75C195.82 495.69 192.24 488.84 193.05 482.33C191.69 503.21 204.54 520.57 227.57 519.27C241.02 518.51 253.63 509.35 258.51 496.8C265.8 521.72 218.77 551.5 203.04 563.49C177.52 582.93 161.67 620.99 190.33 645.62C178.27 635.26 185.05 604.4 193.21 593.85C203.96 579.92 221.17 571.97 235.42 562.31C230.04 569.63 224.66 576.95 219.28 584.27C213.27 592.45 209.88 603.84 208.29 615.99C205.16 639.93 206.14 662.3 203.78 686.05C201.48 709.29 171.87 730.14 151.78 737.45C157.82 735.25 169.68 738.5 176.76 737.26C186.05 735.64 194.61 732.1 202.95 727.8C217.42 720.34 223.74 707.61 226.93 692.18C232.04 705.64 233.12 725.11 227.79 739.36C223.29 751.38 213.99 760.99 208.48 772.58C199.4 791.66 201.92 815.73 214.76 832.51C215.17 816.75 217.66 797.48 223.43 782.71C229.34 767.58 243.63 757.31 248.58 741.69C251.49 762.48 254.4 783.28 257.31 804.07C260.34 825.71 257.66 846.81 237.31 858.64C261.78 844.42 284.95 835.72 293.31 804.73C293.44 804.24 293.57 803.75 293.69 803.26C294.12 801.55 297.65 801 299.04 802.1C312.88 813.12 315.53 832.86 316.13 850.54C316.63 865.31 311.02 885.47 317.39 898.53C330.88 926.21 355.46 914.82 379.28 909.9C391.85 907.3 402.28 905.84 413.24 913.69C427.66 924.02 435.81 943.1 458.52 930.99C448.63 933.08 439 923.51 438.41 913.42C438.1 908.21 439.63 903.18 442.27 898.68L442.25 898.71Z" fill="black"/>
<path d="M536.78 863.97C539.36 859.57 542.96 855.66 546.96 852.51C584.05 823.39 624.78 851.65 606.88 895.1C601.59 907.93 590.34 917.61 577.83 923.64C565.32 929.66 551.52 932.41 537.83 934.71C560.62 930.89 598.4 936.45 618.39 922.73C640.58 907.5 640.01 860.13 629.33 838.54C623.18 826.13 611.49 817.14 598.77 811.66C562.95 796.22 535.34 803.03 500.4 815.76C482.65 822.23 461.16 825.57 446.2 814.03C431.16 802.43 429.01 780.12 433.83 761.75C438.65 743.38 448.92 726.88 454.52 708.73C460.12 690.59 460 668.57 446.57 655.15C441.7 650.29 435.47 646.96 430.68 642.03C413.94 624.8 420.47 596.6 427.71 573.69C434.95 550.79 440.35 521.97 422.46 505.93C415.36 499.56 405.64 496.57 398.9 489.82C381.78 472.68 392.51 443.52 405.77 423.24C419.03 402.96 434.66 378.32 424.22 356.46C421.21 350.16 416.17 344.77 414.5 337.99C412.68 330.6 415.18 322.87 418.19 315.88C427.97 293.11 443.47 272.81 462.87 257.39C479.62 244.07 500.07 233.35 509.31 214.04C515.47 201.16 515.62 186.32 519.03 172.46C524.84 148.84 539.91 128.75 554.62 109.38C577.31 79.51 599.99 49.64 622.68 19.78C628.73 11.81 634.67 -0.0200429 627.65 -7.15004C623.54 -11.33 616.89 -11.35 611.06 -10.78C558.55 -5.61004 525.5 23.49 506.83 72.21C500.65 88.35 491.56 103.32 481.13 117.06C477.23 122.2 473.12 127.18 468.8 131.97C464.9 136.3 461.12 140.19 455.96 143.1C441.7 151.15 426.28 157.61 410.32 161.36C410.32 161.36 462.67 156.45 488.84 128.64C488.84 128.64 488.84 167.9 410.32 195.71C370.06 209.97 387.45 261.25 359.6 284.05C345.33 295.73 332.13 315.18 330.16 333.91C329.22 342.82 331.08 349.74 333.66 358.21C340.79 381.63 342.83 399.37 328.96 420.71C320.88 433.15 304.52 457.35 286.44 447.82C280.39 444.63 276.67 437.51 277.51 430.73C276.09 452.46 289.47 470.52 313.43 469.17C327.42 468.38 340.55 458.85 345.63 445.79C353.21 471.72 304.28 502.71 287.91 515.18C261.35 535.41 244.86 575.01 274.68 600.64C262.14 589.86 269.19 557.75 277.67 546.77C288.86 532.28 306.77 524 321.59 513.95C315.99 521.57 310.39 529.18 304.79 536.8C298.54 545.31 295.01 557.16 293.35 569.8C290.09 594.71 291.11 617.99 288.66 642.7C286.26 666.89 255.46 688.57 234.55 696.19C240.83 693.9 253.18 697.28 260.54 695.99C270.2 694.3 279.11 690.62 287.79 686.15C302.85 678.39 309.42 665.14 312.74 649.09C318.06 663.09 319.18 683.35 313.63 698.18C308.95 710.69 299.27 720.69 293.54 732.75C284.09 752.6 286.71 777.65 300.07 795.11C300.49 778.71 303.09 758.66 309.09 743.29C315.24 727.55 330.11 716.86 335.26 700.61C338.29 722.25 341.32 743.88 344.35 765.52C347.5 788.04 344.71 809.99 323.54 822.31C349 807.51 373.11 798.46 381.81 766.21C381.95 765.7 382.08 765.19 382.21 764.68C382.66 762.9 386.34 762.33 387.77 763.47C402.17 774.94 404.93 795.47 405.56 813.87C406.08 829.23 400.25 850.21 406.87 863.81C420.9 892.61 446.48 880.76 471.26 875.64C484.34 872.94 495.19 871.42 506.6 879.59C521.6 890.34 530.09 910.19 553.71 897.59C543.42 899.77 533.4 889.81 532.79 879.31C532.47 873.89 534.06 868.66 536.81 863.97H536.78Z" fill="#A67C52"/>
<path d="M298.93 924.23C289.41 924.07 279.15 932.98 274.45 940.88C270.93 946.8 269.99 953.92 272.64 960.36C275.63 967.62 285.01 969.46 291.94 968.26C301.35 966.63 316.36 956.72 315.6 945.87C312.6 952.21 306.22 956.9 299.16 957.54C290.69 958.31 283.48 951.31 283.81 943.13C284.03 937.56 287.12 932.04 291.5 928.65C293.78 926.88 296.36 925.55 298.92 924.22L298.93 924.23Z" stroke="black" stroke-width="3" stroke-miterlimit="10"/>
<path d="M740.7 545.9C760.86 561.08 786.82 565.65 811.72 569.77C825.85 572.11 841.07 574.3 853.91 567.97C862.57 563.7 868.81 556.06 873.28 547.68C875.65 543.23 877.49 538.56 879.21 533.83C880.75 529.6 884.13 526.48 883.87 521.7C883.84 521.11 883.71 520.44 883.19 520.15C881.16 519.01 876.51 519.37 874.36 519.88C858.62 523.59 842.24 524.54 826.18 522.67C811.44 520.96 797.09 516.93 782.51 514.15C771.99 512.15 761.6 509.51 750.95 508.24C745.42 507.58 739.8 507.19 734.24 507.68C728.68 508.17 723.72 509.39 718.18 508.1C714.93 507.35 711.77 506.21 708.5 505.56C707.76 505.41 706.89 505.32 706.32 505.81C708.68 509.99 711.04 514.17 713.4 518.35C715.22 521.57 717.49 523.25 719.89 525.79C722.29 528.33 723.96 531.22 726.36 533.66C730.77 538.14 735.68 542.11 740.69 545.89L740.7 545.9Z" fill="#FC6B76"/>
<path d="M724.16 511.51C724.16 511.51 721.66 520.42 724.16 524.7C726.66 528.98 734.85 530.4 736.28 528.26C737.71 526.12 736.28 511.51 736.28 511.51H724.16Z" fill="#E6E6E6"/>
<path d="M746 536.05C746.52 536.19 747.06 536.26 747.65 536.13C748.15 536.02 748.61 535.79 749.04 535.54C752.65 533.46 753.72 530.08 754.18 526.2C754.49 523.54 755.44 518.88 753.75 516.5C751.97 514 740.2 511.51 740.2 511.51C740.2 511.51 732.91 511.51 737.27 532.18C738.34 533.09 739.58 533.86 740.84 534.46C741.86 534.94 742.83 535.08 743.89 535.34C744.62 535.53 745.29 535.85 745.99 536.04L746 536.05Z" fill="#E6E6E6"/>
<path d="M756.75 541.57C757.32 542.53 757.98 543.52 758.75 544.57C759.75 545.94 761.01 547.32 762.68 547.54C766.83 548.06 774.5 539.25 774.77 535.42C775.13 530.41 776.55 523.55 771.92 520.38C767.29 517.21 753.38 516.5 753.38 516.5C753.22 520.49 753.21 524.51 753.38 528.5C753.6 534.04 754.35 537.53 756.75 541.57Z" fill="#E6E6E6"/>
<path d="M777.98 551.77C785.88 553.46 792.95 553.78 794.02 553.38C795.09 552.98 797.58 552.18 797.58 545.35C797.58 538.52 797.94 534.72 795.8 530C793.66 525.28 787.79 523.49 787.79 523.49C787.79 523.49 778.95 521.67 775.25 528.09C771.55 534.51 773.51 550.82 777.97 551.77H777.98Z" fill="#E6E6E6"/>
<path d="M801.15 556.07C814.09 560.6 819.69 557.14 821.11 556.07C822.53 555 824.67 549.65 824.67 547.87C824.67 546.09 825.74 539 824.67 535.41C823.6 531.82 821.82 524.69 810.05 525.05C798.28 525.41 797.6 536.69 797.6 536.69C797.6 536.69 794.01 553.56 801.14 556.06L801.15 556.07Z" fill="#E6E6E6"/>
<path d="M848.53 532.82C848.36 531.65 844.8 523.31 831.01 527.88C831.01 527.88 823.06 529.46 824.05 551.47C824.05 551.47 825.04 563.03 843.69 556.69C843.69 556.69 846.19 556.46 847.87 552.36C849.23 549.04 850.04 543.17 848.54 532.82H848.53Z" fill="#E6E6E6"/>
<path d="M858.54 540C858.54 540 858.54 526.48 851.41 532.54C851.41 532.54 843.57 542.52 851.41 551.43C851.41 551.43 858.54 556.45 858.54 548.22V539.99V540Z" fill="#E6E6E6"/>
<path d="M860.68 532.9C860.68 532.9 871.02 517.04 869.24 529.25C867.46 541.46 867.1 552.07 862.82 550.15C858.54 548.23 856.05 545.02 860.68 532.9Z" fill="#E6E6E6"/>
<path opacity="0.36" d="M857.55 559.09C854.4 557.96 851.08 557.51 847.79 556.9C847.02 556.76 846.22 556.6 845.57 556.15C843.6 554.76 844.25 551.77 844.84 549.44C846.27 543.86 846.13 537.89 844.45 532.37C843.89 530.53 843.15 528.66 843.33 526.75C844.28 516.49 858.76 518.68 865.67 518.63C871.99 518.59 878.31 518.55 884.62 518.5L883.75 526.61L868.85 545.91L857.55 559.09Z" fill="black" stroke="black" stroke-miterlimit="10"/>
<path opacity="0.36" d="M717.42 520.74C719.54 522.88 722.04 524.64 723.88 527C725.32 528.86 725.81 530.69 728.56 531.09C726.73 525.2 725.31 519.61 725.76 513.35C725.85 512.07 726 510.76 725.64 509.54C724.55 505.9 718.53 507.11 715.56 506.54C712.49 505.95 709.33 506.2 706.29 505.4C706.92 505.56 708.91 510.47 709.43 511.27C710.88 513.49 712.64 515.38 714.35 517.39C715.35 518.56 716.37 519.67 717.43 520.74H717.42Z" fill="black" stroke="black" stroke-miterlimit="10"/>
<path d="M707.63 511.47C724.01 543.61 762.58 570.61 796.04 578.86C808.51 581.93 821.18 583.87 834.06 582.5C844.2 581.42 854.33 578.28 862.3 571.7C872.91 562.93 877.05 553.26 880.55 540.15C881.58 536.31 883.11 532.31 883.71 528.38C884.06 526.12 883.44 523.24 884.43 521.13C873.48 544.42 851.11 557.34 825.4 557.34C784.3 557.34 753.65 539.71 753.65 539.71C744.56 534.99 735.05 530.71 726.25 525.49C721.89 522.9 718.17 519.42 714.76 515.69C712.09 512.76 708.58 505.92 704.97 505.11C705.5 507.31 706.58 509.41 707.63 511.47Z" fill="#FF0000"/>
<path d="M704.97 505.01C704.97 505.01 763.03 510.88 786.51 505.01C809.99 499.14 841.96 507.62 841.96 507.62C841.96 507.62 853.7 502.4 878.49 510.23C879.79 510.64 881.22 510.81 882.57 510.99C884.24 511.22 889.6 510.57 890.65 511.96C891.11 512.57 890.85 513.44 890.57 514.16C889.94 515.74 889.32 517.33 888.69 518.91C887.47 522 884.29 523.23 881.37 524.47C877.57 526.08 873.48 526.93 869.36 527.19C848.49 528.49 797.61 526.54 785.21 524.58C772.82 522.62 710.85 510.23 704.98 505.01H704.97Z" fill="#FF0000"/>
<path d="M843.1 580.03C842.83 580.28 842.56 580.52 842.31 580.79C842.08 581.04 844.4 580.68 844.59 580.61C849.71 578.85 854.84 576.94 859.45 574.07C864.33 571.03 868.13 566.79 871.57 562.23C875.13 557.51 877.63 552.09 879.54 546.51C880.45 543.83 881.05 541.04 881.9 538.37C882.89 535.26 884.34 532.22 885.55 529.18C886.9 525.77 888.26 522.36 889.61 518.95C889.27 519.82 885.45 521.25 884.56 521.93C882.67 523.38 882.46 524.79 881.37 526.8C880.39 528.62 879.26 530.37 877.87 531.91C875.15 534.92 872.32 537.83 869.39 540.64C868 541.97 866.62 543.51 865.1 544.68C863.78 545.7 862.48 546.3 862.23 548.17C862.14 548.86 862.22 549.55 862.25 550.24C862.33 552.35 861.87 554.45 861.31 556.49C860.29 560.23 858.88 563.96 856.38 566.93C855.09 568.46 853.55 569.74 852.09 571.11C850.36 572.73 848.91 574.55 847.29 576.26C846.01 577.62 844.49 578.75 843.09 580.01L843.1 580.03Z" fill="#C1272D"/>
<path d="M841.87 522.34C842.14 521.46 842.66 520.65 842.94 519.77C843.95 516.57 841.73 513.28 841.59 509.93C841.57 509.38 841.61 508.8 841.9 508.34C842.31 507.69 843.1 507.41 843.83 507.18C855.64 503.45 867 506.18 878.52 509.82C881.07 510.63 883.75 510.8 886.41 510.93C887.85 511 889.29 510.83 890.73 510.83C892.49 510.83 893.48 510.53 893.04 512.39C891.89 517.26 888.39 520.69 884.36 523.21C880.59 525.57 876.18 527.52 871.66 527.57C867 527.63 840.38 531.93 841.72 522.95C841.75 522.74 841.8 522.54 841.86 522.34H841.87Z" fill="#C1272D"/>
<path d="M762.17 547.16C757.68 543.03 746.48 538.55 741.18 539.97C737.89 540.85 746.66 545.51 747.71 546.1C749.26 546.97 763.84 553.58 763.92 549.64C763.92 549.34 763.75 549.05 763.58 548.78C763.25 548.25 762.77 547.71 762.17 547.15V547.16Z" fill="#FC6B76"/>
<path d="M647.05 265.9C647.05 265.9 693.65 231.73 726.78 238.98C756.09 245.39 799.16 261.52 808.73 265.16C809.9 265.6 810.66 266.72 810.66 267.97V284.72C810.66 286.71 808.76 288.15 806.84 287.61L720.57 263.33C720.57 263.33 694.68 255.55 647.05 265.91V265.9Z" fill="black"/>
<path d="M886.94 299.18L891.98 281.5C892.13 280.97 892.51 280.54 893.01 280.33C900.74 277.01 962.34 251.32 972.57 270.18L975.69 292.93C975.69 292.93 972.57 281.71 955.41 282.94C940.85 283.99 901.01 297.38 889.27 301.41C887.88 301.89 886.53 300.6 886.93 299.19L886.94 299.18Z" fill="black"/>
<path d="M811.53 424.57C802.71 435.16 807.2 460.29 815.06 451.63" stroke="#E6E6E6" stroke-miterlimit="10" stroke-linecap="round"/>
<path d="M842.42 460.44C842.42 460.44 837.66 466.93 845.01 476" stroke="#E6E6E6" stroke-miterlimit="10"/>
<path d="M846.17 481.34C848.092 481.34 849.65 479.782 849.65 477.86C849.65 475.938 848.092 474.38 846.17 474.38C844.248 474.38 842.69 475.938 842.69 477.86C842.69 479.782 844.248 481.34 846.17 481.34Z" fill="#E6E6E6"/>
<path d="M863.95 477.86C865.872 477.86 867.43 476.302 867.43 474.38C867.43 472.458 865.872 470.9 863.95 470.9C862.028 470.9 860.47 472.458 860.47 474.38C860.47 476.302 862.028 477.86 863.95 477.86Z" fill="#E6E6E6"/>
</g>
</svg>
