<svg width="493" height="55" viewBox="0 0 493 55" fill="none" xmlns="http://www.w3.org/2000/svg">
<path d="M17.2977 14.913C29.485 14.307 36.3867 19.054 38.0027 29.154L39.5177 42.183C40.3931 47.5023 42.0091 50.364 44.3657 50.768C44.433 50.8353 44.6687 50.869 45.0727 50.869C45.5441 50.8017 45.8471 50.768 45.9817 50.768C46.3857 50.768 46.6214 50.97 46.6887 51.374C46.756 51.7107 46.6214 51.98 46.2847 52.182C43.4567 53.8653 40.2584 54.707 36.6897 54.707C31.6397 54.707 28.273 53.0237 26.5897 49.657C26.5897 49.657 26.4214 49.8253 26.0847 50.162C25.8154 50.4987 25.3104 50.9363 24.5697 51.475C23.8964 51.9463 23.0884 52.4177 22.1457 52.889C21.203 53.3603 19.991 53.7643 18.5097 54.101C17.0957 54.4377 15.547 54.606 13.8637 54.606C11.4397 54.606 9.21771 54.303 7.19772 53.697C5.24505 53.091 3.59538 52.0137 2.24871 50.465C0.834715 48.9163 0.127715 46.93 0.127715 44.506C0.127715 42.1493 0.632715 40.1967 1.64271 38.648C2.65271 37.0993 3.99938 35.9883 5.68271 35.315C7.36605 34.6417 9.04938 34.1367 10.7327 33.8C12.4834 33.4633 14.335 33.1603 16.2877 32.891C18.3077 32.5543 19.8227 32.1503 20.8327 31.679C22.0447 31.1403 22.819 30.4333 23.1557 29.558C23.5597 28.6827 23.6607 27.4707 23.4587 25.922C23.324 24.508 23.021 23.1613 22.5497 21.882C22.1457 20.6027 21.3714 19.3907 20.2267 18.246C19.082 17.034 17.7354 16.428 16.1867 16.428C14.7054 16.428 13.5944 16.7983 12.8537 17.539C12.1804 18.2123 11.8437 19.054 11.8437 20.064C11.8437 20.7373 12.0457 21.3433 12.4497 21.882C12.921 22.4207 13.426 22.8583 13.9647 23.195C14.5034 23.5317 14.941 24.0703 15.2777 24.811C15.6817 25.5517 15.7827 26.3933 15.5807 27.336C15.446 28.2787 14.9747 29.1203 14.1667 29.861C13.426 30.5343 12.5507 30.972 11.5407 31.174C10.598 31.376 9.58805 31.4097 8.51072 31.275C7.50072 31.1403 6.55805 30.7027 5.68271 29.962C4.87471 29.2213 4.33605 28.2787 4.06671 27.134C3.19138 24.0367 3.93205 21.3097 6.28871 18.953C8.64538 16.529 12.315 15.1823 17.2977 14.913ZM24.0647 31.073C23.3914 32.0157 22.516 32.7563 21.4387 33.295C21.2367 33.4297 20.6644 33.7663 19.7217 34.305C18.8464 34.8437 18.2404 35.2477 17.9037 35.517C17.567 35.719 17.0284 36.123 16.2877 36.729C15.547 37.335 15.0084 37.9073 14.6717 38.446C14.4024 38.9173 14.133 39.5907 13.8637 40.466C13.5944 41.274 13.4597 42.1493 13.4597 43.092C13.4597 46.8627 15.0084 49.354 18.1057 50.566C20.597 51.5087 22.6844 51.2393 24.3677 49.758C25.5124 48.8153 25.9837 47.5697 25.7817 46.021L24.0647 31.073ZM68.0194 14.812C68.1541 14.812 68.2888 14.8457 68.4234 14.913C68.6254 15.0477 68.7264 15.2833 68.7264 15.62V19.357C71.1504 16.4617 74.4834 15.014 78.7254 15.014C88.5561 15.014 94.2121 19.7273 95.6934 29.154L97.3094 43.395C97.7134 46.3577 98.3868 48.546 99.3294 49.96C100.272 51.3067 101.72 52.1483 103.672 52.485C104.278 52.5523 104.581 52.788 104.581 53.192C104.581 53.7307 104.312 54 103.773 54H79.3314C78.7254 54 78.4224 53.7307 78.4224 53.192C78.4224 52.788 78.7254 52.5523 79.3314 52.485C81.2841 52.1483 82.4961 51.3403 82.9674 50.061C83.5061 48.7143 83.6071 46.4923 83.2704 43.395L81.6544 27.74C81.2504 24.71 80.4424 22.2187 79.2304 20.266C78.0184 18.246 76.2678 17.4043 73.9784 17.741C72.8338 17.8757 71.8911 18.2797 71.1504 18.953C70.4771 19.6263 69.9721 20.6363 69.6354 21.983C69.2988 23.2623 69.0631 24.6763 68.9284 26.225C68.7938 27.7063 68.7264 29.6253 68.7264 31.982V43.395C68.7264 46.425 69.1304 48.647 69.9384 50.061C70.7464 51.4077 72.0931 52.2157 73.9784 52.485C74.5171 52.5523 74.7864 52.788 74.7864 53.192C74.7864 53.7307 74.5508 54 74.0794 54H49.4354C48.8968 54 48.6274 53.7307 48.6274 53.192C48.6274 52.788 48.8968 52.5523 49.4354 52.485C51.5228 52.2157 52.9031 51.4077 53.5764 50.061C54.3171 48.7143 54.6874 46.4923 54.6874 43.395V33.699C54.6874 30.3323 54.3844 27.9083 53.7784 26.427C53.1724 24.8783 51.8258 23.8347 49.7384 23.296C49.1998 23.1613 48.9304 22.892 48.9304 22.488C48.9304 22.0167 49.1998 21.7473 49.7384 21.68C52.6338 21.6127 55.5628 21.0067 58.5254 19.862C61.4881 18.7173 63.5418 17.7747 64.6864 17.034C65.8311 16.2933 66.7738 15.62 67.5144 15.014C67.6491 14.8793 67.8174 14.812 68.0194 14.812ZM121.75 14.913C133.937 14.307 140.839 19.054 142.455 29.154L143.97 42.183C144.845 47.5023 146.461 50.364 148.818 50.768C148.885 50.8353 149.121 50.869 149.525 50.869C149.996 50.8017 150.299 50.768 150.434 50.768C150.838 50.768 151.074 50.97 151.141 51.374C151.208 51.7107 151.074 51.98 150.737 52.182C147.909 53.8653 144.711 54.707 141.142 54.707C136.092 54.707 132.725 53.0237 131.042 49.657C131.042 49.657 130.874 49.8253 130.537 50.162C130.268 50.4987 129.763 50.9363 129.022 51.475C128.349 51.9463 127.541 52.4177 126.598 52.889C125.655 53.3603 124.443 53.7643 122.962 54.101C121.548 54.4377 119.999 54.606 118.316 54.606C115.892 54.606 113.67 54.303 111.65 53.697C109.697 53.091 108.048 52.0137 106.701 50.465C105.287 48.9163 104.58 46.93 104.58 44.506C104.58 42.1493 105.085 40.1967 106.095 38.648C107.105 37.0993 108.452 35.9883 110.135 35.315C111.818 34.6417 113.502 34.1367 115.185 33.8C116.936 33.4633 118.787 33.1603 120.74 32.891C122.76 32.5543 124.275 32.1503 125.285 31.679C126.497 31.1403 127.271 30.4333 127.608 29.558C128.012 28.6827 128.113 27.4707 127.911 25.922C127.776 24.508 127.473 23.1613 127.002 21.882C126.598 20.6027 125.824 19.3907 124.679 18.246C123.534 17.034 122.188 16.428 120.639 16.428C119.158 16.428 118.047 16.7983 117.306 17.539C116.633 18.2123 116.296 19.054 116.296 20.064C116.296 20.7373 116.498 21.3433 116.902 21.882C117.373 22.4207 117.878 22.8583 118.417 23.195C118.956 23.5317 119.393 24.0703 119.73 24.811C120.134 25.5517 120.235 26.3933 120.033 27.336C119.898 28.2787 119.427 29.1203 118.619 29.861C117.878 30.5343 117.003 30.972 115.993 31.174C115.05 31.376 114.04 31.4097 112.963 31.275C111.953 31.1403 111.01 30.7027 110.135 29.962C109.327 29.2213 108.788 28.2787 108.519 27.134C107.644 24.0367 108.384 21.3097 110.741 18.953C113.098 16.529 116.767 15.1823 121.75 14.913ZM128.517 31.073C127.844 32.0157 126.968 32.7563 125.891 33.295C125.689 33.4297 125.117 33.7663 124.174 34.305C123.299 34.8437 122.693 35.2477 122.356 35.517C122.019 35.719 121.481 36.123 120.74 36.729C119.999 37.335 119.461 37.9073 119.124 38.446C118.855 38.9173 118.585 39.5907 118.316 40.466C118.047 41.274 117.912 42.1493 117.912 43.092C117.912 46.8627 119.461 49.354 122.558 50.566C125.049 51.5087 127.137 51.2393 128.82 49.758C129.965 48.8153 130.436 47.5697 130.234 46.021L128.517 31.073ZM191.561 14.913C193.177 14.913 194.759 15.014 196.308 15.216C197.924 15.418 198.934 15.5863 199.338 15.721C199.809 15.7883 200.348 15.7547 200.954 15.62C201.627 15.1487 202.031 14.913 202.166 14.913C202.637 14.913 202.906 15.1487 202.974 15.62L203.984 26.73C203.984 27.2687 203.748 27.538 203.277 27.538C202.873 27.6053 202.603 27.3697 202.469 26.831C201.459 22.4543 199.775 19.4917 197.419 17.943C195.87 16.933 193.917 16.428 191.561 16.428C189.406 16.428 187.925 17.236 187.117 18.852C186.309 20.468 186.376 22.1177 187.319 23.801C187.857 24.811 188.968 25.821 190.652 26.831C192.402 27.7737 194.288 28.6827 196.308 29.558C198.328 30.366 200.314 31.275 202.267 32.285C204.219 33.295 205.835 34.5743 207.115 36.123C208.461 37.6043 209.135 39.3213 209.135 41.274C209.135 45.2467 207.418 48.4787 203.984 50.97C200.55 53.394 195.904 54.606 190.046 54.606C184.996 54.606 181.09 53.3603 178.33 50.869C175.636 48.3777 174.694 45.5833 175.502 42.486C175.906 41.1393 176.613 40.0957 177.623 39.355C178.565 38.6143 179.676 38.244 180.956 38.244C182.774 38.244 184.255 38.8163 185.4 39.961C186.612 41.1057 187.117 42.4187 186.915 43.9C186.713 44.9773 186.039 45.9873 184.895 46.93C183.817 47.8053 183.279 48.647 183.279 49.455C183.346 50.3977 183.952 51.2393 185.097 51.98C186.241 52.7207 187.622 53.091 189.238 53.091C191.864 53.091 193.783 52.4513 194.995 51.172C196.274 49.8253 196.914 48.3103 196.914 46.627C196.914 45.213 196.409 43.9673 195.399 42.89C194.456 41.8127 193.244 40.9373 191.763 40.264C190.281 39.5907 188.632 38.85 186.814 38.042C185.063 37.1667 183.413 36.325 181.865 35.517C180.316 34.6417 179.003 33.4633 177.926 31.982C176.781 30.5007 176.108 28.7837 175.906 26.831C175.569 23.3297 176.68 20.468 179.239 18.246C181.797 16.024 185.905 14.913 191.561 14.913ZM228.964 14.913C241.151 14.307 248.053 19.054 249.669 29.154L251.184 42.183C252.059 47.5023 253.675 50.364 256.032 50.768C256.099 50.8353 256.335 50.869 256.739 50.869C257.21 50.8017 257.513 50.768 257.648 50.768C258.052 50.768 258.287 50.97 258.355 51.374C258.422 51.7107 258.287 51.98 257.951 52.182C255.123 53.8653 251.924 54.707 248.356 54.707C243.306 54.707 239.939 53.0237 238.256 49.657C238.256 49.657 238.087 49.8253 237.751 50.162C237.481 50.4987 236.976 50.9363 236.236 51.475C235.562 51.9463 234.754 52.4177 233.812 52.889C232.869 53.3603 231.657 53.7643 230.176 54.101C228.762 54.4377 227.213 54.606 225.53 54.606C223.106 54.606 220.884 54.303 218.864 53.697C216.911 53.091 215.261 52.0137 213.915 50.465C212.501 48.9163 211.794 46.93 211.794 44.506C211.794 42.1493 212.299 40.1967 213.309 38.648C214.319 37.0993 215.665 35.9883 217.349 35.315C219.032 34.6417 220.715 34.1367 222.399 33.8C224.149 33.4633 226.001 33.1603 227.954 32.891C229.974 32.5543 231.489 32.1503 232.499 31.679C233.711 31.1403 234.485 30.4333 234.822 29.558C235.226 28.6827 235.327 27.4707 235.125 25.922C234.99 24.508 234.687 23.1613 234.216 21.882C233.812 20.6027 233.037 19.3907 231.893 18.246C230.748 17.034 229.401 16.428 227.853 16.428C226.371 16.428 225.26 16.7983 224.52 17.539C223.846 18.2123 223.51 19.054 223.51 20.064C223.51 20.7373 223.712 21.3433 224.116 21.882C224.587 22.4207 225.092 22.8583 225.631 23.195C226.169 23.5317 226.607 24.0703 226.944 24.811C227.348 25.5517 227.449 26.3933 227.247 27.336C227.112 28.2787 226.641 29.1203 225.833 29.861C225.092 30.5343 224.217 30.972 223.207 31.174C222.264 31.376 221.254 31.4097 220.177 31.275C219.167 31.1403 218.224 30.7027 217.349 29.962C216.541 29.2213 216.002 28.2787 215.733 27.134C214.857 24.0367 215.598 21.3097 217.955 18.953C220.311 16.529 223.981 15.1823 228.964 14.913ZM235.731 31.073C235.057 32.0157 234.182 32.7563 233.105 33.295C232.903 33.4297 232.33 33.7663 231.388 34.305C230.512 34.8437 229.906 35.2477 229.57 35.517C229.233 35.719 228.694 36.123 227.954 36.729C227.213 37.335 226.674 37.9073 226.338 38.446C226.068 38.9173 225.799 39.5907 225.53 40.466C225.26 41.274 225.126 42.1493 225.126 43.092C225.126 46.8627 226.674 49.354 229.772 50.566C232.263 51.5087 234.35 51.2393 236.034 49.758C237.178 48.8153 237.65 47.5697 237.448 46.021L235.731 31.073ZM279.685 14.812C279.82 14.812 279.955 14.8457 280.089 14.913C280.291 15.0477 280.392 15.2833 280.392 15.62V19.357C282.816 16.4617 286.149 15.014 290.391 15.014C300.222 15.014 305.878 19.7273 307.359 29.154L308.975 43.395C309.379 46.3577 310.053 48.546 310.995 49.96C311.938 51.3067 313.386 52.1483 315.338 52.485C315.944 52.5523 316.247 52.788 316.247 53.192C316.247 53.7307 315.978 54 315.439 54H290.997C290.391 54 290.088 53.7307 290.088 53.192C290.088 52.788 290.391 52.5523 290.997 52.485C292.95 52.1483 294.162 51.3403 294.633 50.061C295.172 48.7143 295.273 46.4923 294.936 43.395L293.32 27.74C292.916 24.71 292.108 22.2187 290.896 20.266C289.684 18.246 287.934 17.4043 285.644 17.741C284.5 17.8757 283.557 18.2797 282.816 18.953C282.143 19.6263 281.638 20.6363 281.301 21.983C280.965 23.2623 280.729 24.6763 280.594 26.225C280.46 27.7063 280.392 29.6253 280.392 31.982V43.395C280.392 46.425 280.796 48.647 281.604 50.061C282.412 51.4077 283.759 52.2157 285.644 52.485C286.183 52.5523 286.452 52.788 286.452 53.192C286.452 53.7307 286.217 54 285.745 54H261.101C260.563 54 260.293 53.7307 260.293 53.192C260.293 52.788 260.563 52.5523 261.101 52.485C263.189 52.2157 264.569 51.4077 265.242 50.061C265.983 48.7143 266.353 46.4923 266.353 43.395V33.699C266.353 30.3323 266.05 27.9083 265.444 26.427C264.838 24.8783 263.492 23.8347 261.404 23.296C260.866 23.1613 260.596 22.892 260.596 22.488C260.596 22.0167 260.866 21.7473 261.404 21.68C264.3 21.6127 267.229 21.0067 270.191 19.862C273.154 18.7173 275.208 17.7747 276.352 17.034C277.497 16.2933 278.44 15.62 279.18 15.014C279.315 14.8793 279.483 14.812 279.685 14.812ZM329.651 1.278C329.786 0.874 330.055 0.705667 330.459 0.772999C330.863 0.840331 331.065 1.10966 331.065 1.58099V17.034H338.034C338.573 17.034 338.842 17.3033 338.842 17.842C338.842 18.3133 338.573 18.549 338.034 18.549H331.065V40.466C331.065 45.718 332.143 48.3103 334.297 48.243C335.105 48.243 335.913 47.8727 336.721 47.132C337.529 46.3913 338.135 45.5497 338.539 44.607C338.674 44.2703 338.91 44.102 339.246 44.102C339.516 44.102 339.718 44.2367 339.852 44.506C339.987 44.708 339.987 44.9437 339.852 45.213C338.708 47.839 337.024 50.061 334.802 51.879C332.58 53.697 330.123 54.606 327.429 54.606C323.928 54.606 321.302 53.5287 319.551 51.374C317.801 49.152 316.925 45.516 316.925 40.466L317.026 24.912C317.026 23.7 317.026 22.791 317.026 22.185C317.026 21.579 316.925 20.973 316.723 20.367C316.589 19.761 316.454 19.3907 316.319 19.256C316.252 19.054 315.983 18.8857 315.511 18.751C314.973 18.549 314.501 18.448 314.097 18.448C313.693 18.448 313.02 18.448 312.077 18.448C311.471 18.3133 311.168 18.044 311.168 17.64C311.168 17.236 311.438 17.0003 311.976 16.933C314.804 16.327 318.205 14.3743 322.177 11.075C326.217 7.70833 328.709 4.44266 329.651 1.278ZM359.06 14.913C371.248 14.307 378.149 19.054 379.765 29.154L381.28 42.183C382.156 47.5023 383.772 50.364 386.128 50.768C386.196 50.8353 386.431 50.869 386.835 50.869C387.307 50.8017 387.61 50.768 387.744 50.768C388.148 50.768 388.384 50.97 388.451 51.374C388.519 51.7107 388.384 51.98 388.047 52.182C385.219 53.8653 382.021 54.707 378.452 54.707C373.402 54.707 370.036 53.0237 368.352 49.657C368.352 49.657 368.184 49.8253 367.847 50.162C367.578 50.4987 367.073 50.9363 366.332 51.475C365.659 51.9463 364.851 52.4177 363.908 52.889C362.966 53.3603 361.754 53.7643 360.272 54.101C358.858 54.4377 357.31 54.606 355.626 54.606C353.202 54.606 350.98 54.303 348.96 53.697C347.008 53.091 345.358 52.0137 344.011 50.465C342.597 48.9163 341.89 46.93 341.89 44.506C341.89 42.1493 342.395 40.1967 343.405 38.648C344.415 37.0993 345.762 35.9883 347.445 35.315C349.129 34.6417 350.812 34.1367 352.495 33.8C354.246 33.4633 356.098 33.1603 358.05 32.891C360.07 32.5543 361.585 32.1503 362.595 31.679C363.807 31.1403 364.582 30.4333 364.918 29.558C365.322 28.6827 365.423 27.4707 365.221 25.922C365.087 24.508 364.784 23.1613 364.312 21.882C363.908 20.6027 363.134 19.3907 361.989 18.246C360.845 17.034 359.498 16.428 357.949 16.428C356.468 16.428 355.357 16.7983 354.616 17.539C353.943 18.2123 353.606 19.054 353.606 20.064C353.606 20.7373 353.808 21.3433 354.212 21.882C354.684 22.4207 355.189 22.8583 355.727 23.195C356.266 23.5317 356.704 24.0703 357.04 24.811C357.444 25.5517 357.545 26.3933 357.343 27.336C357.209 28.2787 356.737 29.1203 355.929 29.861C355.189 30.5343 354.313 30.972 353.303 31.174C352.361 31.376 351.351 31.4097 350.273 31.275C349.263 31.1403 348.321 30.7027 347.445 29.962C346.637 29.2213 346.099 28.2787 345.829 27.134C344.954 24.0367 345.695 21.3097 348.051 18.953C350.408 16.529 354.078 15.1823 359.06 14.913ZM365.827 31.073C365.154 32.0157 364.279 32.7563 363.201 33.295C362.999 33.4297 362.427 33.7663 361.484 34.305C360.609 34.8437 360.003 35.2477 359.666 35.517C359.33 35.719 358.791 36.123 358.05 36.729C357.31 37.335 356.771 37.9073 356.434 38.446C356.165 38.9173 355.896 39.5907 355.626 40.466C355.357 41.274 355.222 42.1493 355.222 43.092C355.222 46.8627 356.771 49.354 359.868 50.566C362.36 51.5087 364.447 51.2393 366.13 49.758C367.275 48.8153 367.746 47.5697 367.544 46.021L365.827 31.073ZM409.782 14.812C409.917 14.812 410.051 14.8457 410.186 14.913C410.388 15.0477 410.489 15.2833 410.489 15.62V19.357C412.913 16.4617 416.246 15.014 420.488 15.014C430.319 15.014 435.975 19.7273 437.456 29.154L439.072 43.395C439.476 46.3577 440.149 48.546 441.092 49.96C442.035 51.3067 443.482 52.1483 445.435 52.485C446.041 52.5523 446.344 52.788 446.344 53.192C446.344 53.7307 446.075 54 445.536 54H421.094C420.488 54 420.185 53.7307 420.185 53.192C420.185 52.788 420.488 52.5523 421.094 52.485C423.047 52.1483 424.259 51.3403 424.73 50.061C425.269 48.7143 425.37 46.4923 425.033 43.395L423.417 27.74C423.013 24.71 422.205 22.2187 420.993 20.266C419.781 18.246 418.03 17.4043 415.741 17.741C414.596 17.8757 413.654 18.2797 412.913 18.953C412.24 19.6263 411.735 20.6363 411.398 21.983C411.061 23.2623 410.826 24.6763 410.691 26.225C410.556 27.7063 410.489 29.6253 410.489 31.982V43.395C410.489 46.425 410.893 48.647 411.701 50.061C412.509 51.4077 413.856 52.2157 415.741 52.485C416.28 52.5523 416.549 52.788 416.549 53.192C416.549 53.7307 416.313 54 415.842 54H391.198C390.659 54 390.39 53.7307 390.39 53.192C390.39 52.788 390.659 52.5523 391.198 52.485C393.285 52.2157 394.666 51.4077 395.339 50.061C396.08 48.7143 396.45 46.4923 396.45 43.395V33.699C396.45 30.3323 396.147 27.9083 395.541 26.427C394.935 24.8783 393.588 23.8347 391.501 23.296C390.962 23.1613 390.693 22.892 390.693 22.488C390.693 22.0167 390.962 21.7473 391.501 21.68C394.396 21.6127 397.325 21.0067 400.288 19.862C403.251 18.7173 405.304 17.7747 406.449 17.034C407.594 16.2933 408.536 15.62 409.277 15.014C409.412 14.8793 409.58 14.812 409.782 14.812ZM463.513 14.913C475.7 14.307 482.602 19.054 484.218 29.154L485.733 42.183C486.608 47.5023 488.224 50.364 490.581 50.768C490.648 50.8353 490.884 50.869 491.288 50.869C491.759 50.8017 492.062 50.768 492.197 50.768C492.601 50.768 492.836 50.97 492.904 51.374C492.971 51.7107 492.836 51.98 492.5 52.182C489.672 53.8653 486.473 54.707 482.905 54.707C477.855 54.707 474.488 53.0237 472.805 49.657C472.805 49.657 472.636 49.8253 472.3 50.162C472.03 50.4987 471.525 50.9363 470.785 51.475C470.111 51.9463 469.303 52.4177 468.361 52.889C467.418 53.3603 466.206 53.7643 464.725 54.101C463.311 54.4377 461.762 54.606 460.079 54.606C457.655 54.606 455.433 54.303 453.413 53.697C451.46 53.091 449.81 52.0137 448.464 50.465C447.05 48.9163 446.343 46.93 446.343 44.506C446.343 42.1493 446.848 40.1967 447.858 38.648C448.868 37.0993 450.214 35.9883 451.898 35.315C453.581 34.6417 455.264 34.1367 456.948 33.8C458.698 33.4633 460.55 33.1603 462.503 32.891C464.523 32.5543 466.038 32.1503 467.048 31.679C468.26 31.1403 469.034 30.4333 469.371 29.558C469.775 28.6827 469.876 27.4707 469.674 25.922C469.539 24.508 469.236 23.1613 468.765 21.882C468.361 20.6027 467.586 19.3907 466.442 18.246C465.297 17.034 463.95 16.428 462.402 16.428C460.92 16.428 459.809 16.7983 459.069 17.539C458.395 18.2123 458.059 19.054 458.059 20.064C458.059 20.7373 458.261 21.3433 458.665 21.882C459.136 22.4207 459.641 22.8583 460.18 23.195C460.718 23.5317 461.156 24.0703 461.493 24.811C461.897 25.5517 461.998 26.3933 461.796 27.336C461.661 28.2787 461.19 29.1203 460.382 29.861C459.641 30.5343 458.766 30.972 457.756 31.174C456.813 31.376 455.803 31.4097 454.726 31.275C453.716 31.1403 452.773 30.7027 451.898 29.962C451.09 29.2213 450.551 28.2787 450.282 27.134C449.406 24.0367 450.147 21.3097 452.504 18.953C454.86 16.529 458.53 15.1823 463.513 14.913ZM470.28 31.073C469.606 32.0157 468.731 32.7563 467.654 33.295C467.452 33.4297 466.879 33.7663 465.937 34.305C465.061 34.8437 464.455 35.2477 464.119 35.517C463.782 35.719 463.243 36.123 462.503 36.729C461.762 37.335 461.223 37.9073 460.887 38.446C460.617 38.9173 460.348 39.5907 460.079 40.466C459.809 41.274 459.675 42.1493 459.675 43.092C459.675 46.8627 461.223 49.354 464.321 50.566C466.812 51.5087 468.899 51.2393 470.583 49.758C471.727 48.8153 472.199 47.5697 471.997 46.021L470.28 31.073Z" fill="black"/>
</svg>
