<svg width="598" height="405" viewBox="0 0 598 405" fill="none" xmlns="http://www.w3.org/2000/svg">
<path d="M121.76 127.29H7.33015C4.89015 127.29 2.91016 125.31 2.91016 122.87C2.91016 120.43 4.89015 118.45 7.33015 118.45H121.76C124.2 118.45 126.18 120.43 126.18 122.87C126.18 125.31 124.2 127.29 121.76 127.29Z" fill="#F97316"/>
<path d="M332.61 9.06977H258.06C255.56 9.06977 253.53 7.03977 253.53 4.53977C253.53 2.03977 255.56 0.00976562 258.06 0.00976562H332.61C335.11 0.00976562 337.14 2.03977 337.14 4.53977C337.14 7.03977 335.11 9.06977 332.61 9.06977Z" fill="#F97316"/>
<path d="M45.1404 160.78H58.2904C61.7404 160.78 64.5504 163.58 64.5504 167.04V179.39C64.5504 182.84 61.7504 185.65 58.2904 185.65H45.1404C41.6904 185.65 38.8804 182.85 38.8804 179.39V167.04C38.8804 163.59 41.6804 160.78 45.1404 160.78Z" fill="#3B82F6"/>
<path d="M440.94 391.34H433.75C431.867 391.34 430.34 392.867 430.34 394.75V401.5C430.34 403.383 431.867 404.91 433.75 404.91H440.94C442.824 404.91 444.35 403.383 444.35 401.5V394.75C444.35 392.867 442.824 391.34 440.94 391.34Z" fill="#F97316"/>
<path d="M562.47 103.65H569.65C571.53 103.65 573.06 105.18 573.06 107.06V113.8C573.06 115.68 571.53 117.21 569.65 117.21H562.47C560.59 117.21 559.06 115.68 559.06 113.8V107.06C559.06 105.18 560.59 103.65 562.47 103.65Z" fill="#3B82F6"/>
<path d="M194 403.48H151.66C148.52 403.48 145.98 400.94 145.98 397.8C145.98 394.66 148.52 392.12 151.66 392.12H194C197.14 392.12 199.68 394.66 199.68 397.8C199.68 400.94 197.14 403.48 194 403.48Z" fill="#F97316"/>
<path d="M533.99 257.55L555.25 292.39L559.56 281.62L575.93 293.47L583.48 282.8L566.01 271.47L574.4 262.47L533.99 257.55Z" fill="#FEFEF4"/>
<path d="M465.75 64.9297H124.74C120.792 64.9297 117.59 68.1309 117.59 72.0797V356.11C117.59 360.059 120.792 363.26 124.74 363.26H465.75C469.699 363.26 472.9 360.059 472.9 356.11V72.0797C472.9 68.1309 469.699 64.9297 465.75 64.9297Z" fill="#FFF2BE"/>
<path d="M117.59 100.83H472.9" stroke="#FEFEF4" stroke-width="1.94" stroke-miterlimit="10"/>
<path d="M465.75 64.9297H124.74C120.792 64.9297 117.59 68.1309 117.59 72.0797V356.11C117.59 360.059 120.792 363.26 124.74 363.26H465.75C469.699 363.26 472.9 360.059 472.9 356.11V72.0797C472.9 68.1309 469.699 64.9297 465.75 64.9297Z" stroke="#FEFEF4" stroke-width="1.94" stroke-miterlimit="10"/>
<path d="M147.62 88.25C150.387 88.25 152.63 86.0069 152.63 83.24C152.63 80.473 150.387 78.23 147.62 78.23C144.853 78.23 142.61 80.473 142.61 83.24C142.61 86.0069 144.853 88.25 147.62 88.25Z" stroke="#FEFEF4" stroke-width="1.94" stroke-miterlimit="10"/>
<path d="M167.09 88.25C169.857 88.25 172.1 86.0069 172.1 83.24C172.1 80.473 169.857 78.23 167.09 78.23C164.323 78.23 162.08 80.473 162.08 83.24C162.08 86.0069 164.323 88.25 167.09 88.25Z" stroke="#FEFEF4" stroke-width="1.94" stroke-miterlimit="10"/>
<path d="M186.56 88.25C189.327 88.25 191.57 86.0069 191.57 83.24C191.57 80.473 189.327 78.23 186.56 78.23C183.793 78.23 181.55 80.473 181.55 83.24C181.55 86.0069 183.793 88.25 186.56 88.25Z" stroke="#FEFEF4" stroke-width="1.94" stroke-miterlimit="10"/>
<path d="M191.36 221.85H10.8002C5.08405 221.85 0.450195 226.483 0.450195 232.2V299.14C0.450195 304.856 5.08405 309.49 10.8002 309.49H191.36C197.076 309.49 201.71 304.856 201.71 299.14V232.2C201.71 226.483 197.076 221.85 191.36 221.85Z" fill="#F97316"/>
<path d="M24.85 238.12C24.85 240.22 23.14 241.93 21.04 241.93C18.94 241.93 17.23 240.22 17.23 238.12C17.23 236.02 18.94 234.31 21.04 234.31C23.14 234.31 24.85 236.02 24.85 238.12Z" stroke="#FEFEF4" stroke-width="1.48" stroke-miterlimit="10"/>
<path d="M35.85 241.93C37.9542 241.93 39.66 240.224 39.66 238.12C39.66 236.015 37.9542 234.31 35.85 234.31C33.7458 234.31 32.04 236.015 32.04 238.12C32.04 240.224 33.7458 241.93 35.85 241.93Z" stroke="#FEFEF4" stroke-width="1.48" stroke-miterlimit="10"/>
<path d="M50.6601 241.93C52.7643 241.93 54.4701 240.224 54.4701 238.12C54.4701 236.015 52.7643 234.31 50.6601 234.31C48.5559 234.31 46.8501 236.015 46.8501 238.12C46.8501 240.224 48.5559 241.93 50.6601 241.93Z" stroke="#FEFEF4" stroke-width="1.48" stroke-miterlimit="10"/>
<path d="M0.450195 252.55H201.71" stroke="#FEFEF4" stroke-width="1.48" stroke-miterlimit="10"/>
<path d="M515.84 20.7896H434.84C428.08 20.7896 422.6 26.2696 422.6 33.0295V98.3695C422.6 105.13 428.08 110.61 434.84 110.61H515.84C522.6 110.61 528.08 105.13 528.08 98.3695V33.0295C528.08 26.2696 522.6 20.7896 515.84 20.7896Z" fill="#F43F5E"/>
<path d="M468.68 75.92C458.63 75.92 450.45 67.74 450.45 57.69C450.45 47.64 458.63 39.46 468.68 39.46C478.73 39.46 486.91 47.64 486.91 57.69C486.91 67.74 478.73 75.92 468.68 75.92ZM468.68 43.59C460.91 43.59 454.58 49.91 454.58 57.69C454.58 65.47 460.9 71.79 468.68 71.79C476.46 71.79 482.78 65.47 482.78 57.69C482.78 49.91 476.46 43.59 468.68 43.59Z" fill="#FEFEF4"/>
<path d="M481.548 67.6705L478.627 70.5908L484.009 75.9719L486.929 73.0515L481.548 67.6705Z" fill="#FEFEF4"/>
<path d="M483.243 78.7464L493.892 89.3954C495.021 90.524 496.85 90.524 497.979 89.3954L500.348 87.0266C501.477 85.898 501.476 84.0681 500.348 82.9395L489.699 72.2905C488.57 71.1619 486.74 71.1619 485.612 72.2905L483.243 74.6593C482.114 75.7879 482.114 77.6178 483.243 78.7464Z" fill="#FEFEF4"/>
<path d="M86.6802 14.71H40.1202C32.3165 14.71 25.9902 21.0362 25.9902 28.84V68.32C25.9902 76.1237 32.3165 82.45 40.1202 82.45H86.6802C94.484 82.45 100.81 76.1237 100.81 68.32V28.84C100.81 21.0362 94.484 14.71 86.6802 14.71Z" fill="#3B82F6"/>
<path d="M63.4003 63.1697C54.6603 63.1697 47.5503 56.0597 47.5503 47.3197C47.5503 38.5797 54.6603 31.4697 63.4003 31.4697C72.1403 31.4697 79.2503 38.5797 79.2503 47.3197C79.2503 56.0597 72.1403 63.1697 63.4003 63.1697ZM63.4003 36.2397C57.2903 36.2397 52.3103 41.2097 52.3103 47.3297C52.3103 53.4497 57.2803 58.4197 63.4003 58.4197C69.5203 58.4197 74.4903 53.4497 74.4903 47.3297C74.4903 41.2097 69.5203 36.2397 63.4003 36.2397Z" fill="#FEFEF4"/>
<path d="M72.7401 36.2397L54.5601 58.4098" stroke="#FEFEF4" stroke-width="4.52" stroke-miterlimit="10"/>
<path d="M584.52 168.84H415.89C408.683 168.84 402.84 174.683 402.84 181.89V307.72C402.84 314.927 408.683 320.77 415.89 320.77H584.52C591.728 320.77 597.57 314.927 597.57 307.72V181.89C597.57 174.683 591.728 168.84 584.52 168.84Z" fill="#3B82F6"/>
<path d="M447.907 264.07H442.88V270H432.986V264.07H419.258V257.528L429.216 223.787H442.88V257.142H447.907V264.07ZM432.986 257.142V238.901L428.378 257.142H432.986ZM449.1 262.104V232.359C449.1 226.365 453.085 223.368 461.056 223.368C468.876 223.368 472.786 226.344 472.786 232.295V262.04C472.786 264.704 471.68 266.767 469.467 268.228C467.275 269.688 464.45 270.419 460.991 270.419C457.425 270.419 454.546 269.699 452.354 268.26C450.185 266.82 449.1 264.769 449.1 262.104ZM462.635 262.588V231.103C462.635 230.179 462.087 229.717 460.991 229.717C459.831 229.717 459.251 230.179 459.251 231.103V262.588C459.251 263.512 459.831 263.974 460.991 263.974C462.087 263.974 462.635 263.512 462.635 262.588ZM502.692 264.07H497.665V270H487.771V264.07H474.043V257.528L484.001 223.787H497.665V257.142H502.692V264.07ZM487.771 257.142V238.901L483.163 257.142H487.771Z" fill="#FEFEF4"/>
<path d="M422.99 186.87C425.028 186.87 426.68 185.218 426.68 183.18C426.68 181.142 425.028 179.49 422.99 179.49C420.952 179.49 419.3 181.142 419.3 183.18C419.3 185.218 420.952 186.87 422.99 186.87Z" stroke="#FEFEF4" stroke-width="1.43" stroke-miterlimit="10"/>
<path d="M437.34 186.87C439.378 186.87 441.03 185.218 441.03 183.18C441.03 181.142 439.378 179.49 437.34 179.49C435.302 179.49 433.65 181.142 433.65 183.18C433.65 185.218 435.302 186.87 437.34 186.87Z" stroke="#FEFEF4" stroke-width="1.43" stroke-miterlimit="10"/>
<path d="M451.68 186.87C453.718 186.87 455.37 185.218 455.37 183.18C455.37 181.142 453.718 179.49 451.68 179.49C449.642 179.49 447.99 181.142 447.99 183.18C447.99 185.218 449.642 186.87 451.68 186.87Z" stroke="#FEFEF4" stroke-width="1.43" stroke-miterlimit="10"/>
<path d="M402.84 198.57H597.58" stroke="#FEFEF4" stroke-width="1.43" stroke-miterlimit="10"/>
<path d="M313.81 257.18L313.07 247.15L250.52 250.22V259.9C250.52 259.9 236.45 273.28 230.9 362.33H343.49C343.49 362.33 355.84 283.53 313.81 257.18Z" fill="#3B82F6"/>
<path d="M250.52 259.9L313.81 257.18" stroke="black" stroke-width="1.55" stroke-miterlimit="10"/>
<path d="M263.45 300.96L276.42 306.24L283.36 362.33" stroke="black" stroke-width="1.55" stroke-miterlimit="10"/>
<path d="M241.34 63.2696C239.4 64.5996 226.36 67.9896 226.1 70.3596C226.1 70.3596 230.39 87.1296 226 90.2596C214.12 98.7196 210.32 115.31 210.32 115.31C202.16 135.77 291.45 211.66 323.39 118.45C323.39 118.45 325.95 104.16 310.8 96.9096C306.48 94.8396 302.63 91.7296 300.2 87.4896C298.32 84.2096 298.03 82.8196 297.53 79.8796C296.13 71.6596 273.44 41.2396 241.34 63.2696Z" fill="black"/>
<path d="M242.57 88.3996C242.95 93.8996 238.8 98.6796 233.3 99.0596C227.8 99.4396 223.02 95.2896 222.64 89.7896C222.26 84.2896 226.41 79.5096 231.91 79.1296C237.41 78.7496 242.19 82.8996 242.57 88.3996Z" fill="#AF6A61"/>
<path d="M247.08 112.88L248.46 134.61C248.93 142.24 252.05 147.44 259.56 146.92C265.97 146.47 273.59 141.34 273.94 134.93L270.12 100.84L247.08 112.89V112.88Z" fill="#CD8379"/>
<path d="M242.59 135.93L282.03 134.56C282.03 134.56 281.07 153.95 257.63 152.14C241.33 150.88 242.59 135.94 242.59 135.94V135.93Z" fill="#CD8379"/>
<path d="M248.22 130.77L273.43 106.12L246.89 110.65L248.22 130.77Z" fill="#AF6A61"/>
<path d="M253.69 116.39C240.85 116.43 230.25 106.32 229.87 95.8398L229.11 71.1098C228.63 57.9698 238.66 46.8198 251.77 45.9098C265.19 44.9798 279.19 54.9398 280.12 68.3598L280.51 88.2598C280.81 103.65 269.04 115.32 253.68 116.39H253.69Z" fill="#CD8379"/>
<path d="M243.33 87.1299L242.59 93.2699L245.76 93.3899" stroke="black" stroke-width="1.24" stroke-linecap="round" stroke-linejoin="round"/>
<path d="M256.01 72.1396C256.01 72.1396 248.92 71.5596 248.85 74.4396C248.85 74.4396 248.85 76.3896 255.04 76.7796C261.23 77.1696 262.84 76.7096 263.4 74.8796C263.97 73.0396 259.34 72.1496 256.01 72.1296V72.1396Z" fill="black"/>
<path d="M235.46 76.35C235.46 76.35 240.83 75.92 241.34 78.51C241.34 78.51 241.64 80.27 236.94 80.54C232.24 80.81 230.78 80.23 230.69 78.74C230.59 76.97 232.91 76.33 235.47 76.35H235.46Z" fill="black"/>
<path d="M238.57 84.7796C238.61 86.0296 237.63 87.0796 236.38 87.1196C235.13 87.1596 234.08 86.1796 234.04 84.9296C234 83.6796 234.98 82.6296 236.23 82.5896C237.48 82.5496 238.53 83.5296 238.57 84.7796Z" fill="black"/>
<path d="M257.63 84.1599C257.67 85.4099 256.69 86.4599 255.44 86.4999C254.19 86.5399 253.14 85.5599 253.1 84.3099C253.06 83.0599 254.04 82.0099 255.29 81.9699C256.54 81.9299 257.59 82.9099 257.63 84.1599Z" fill="black"/>
<path d="M250.99 97.6498C250.99 97.6498 247.64 96.1198 243.58 99.6198" stroke="black" stroke-width="1.24" stroke-linecap="round" stroke-linejoin="round"/>
<path d="M259.72 41.6498C256.52 41.4798 253.29 41.8298 250.2 42.6598C242.51 44.7098 228.71 50.3998 226.34 65.1698C225.55 69.0598 226.1 70.3698 226.1 70.3698C226.1 70.3698 251.88 71.3798 267.13 64.1798C269.32 73.4698 271.35 79.2198 280.53 88.2598L288.68 76.0198L297.85 84.2398C297.91 84.5498 297.9 43.6798 259.74 41.6498H259.72Z" fill="black"/>
<path d="M293.9 88.4997C294.28 93.9997 290.13 98.7797 284.63 99.1597C279.13 99.5397 274.35 95.3897 273.97 89.8897C273.59 84.3897 277.74 79.6097 283.24 79.2297C288.74 78.8497 293.52 82.9997 293.9 88.4997Z" fill="#CD8379"/>
<path d="M280.12 92.0499C280.12 92.0499 279.62 84.8299 286.6 85.4799" stroke="black" stroke-width="1.24" stroke-linecap="round" stroke-linejoin="round"/>
<path d="M182.14 237.78L199.42 180.74L237.43 194.99L219.19 249.62C215.45 260.9 202.56 266.23 191.95 260.86C183.49 256.59 179.35 246.84 182.14 237.78Z" fill="#CD8379"/>
<path d="M208.8 150.28C212.22 139.16 224.16 133.07 235.17 136.83C245.87 140.49 251.64 152.08 248.08 162.82L237.43 194.98L199.42 180.73L208.8 150.27V150.28Z" fill="#FEFEF4"/>
<path d="M211.49 233.5L168.08 151.19C168.08 151.19 169.07 136.32 144.37 135.43V135.45C144.04 135.43 143.71 135.4 143.37 135.4H135.11C133.58 135.4 132.18 136.48 131.97 138C131.73 139.76 132.96 141.27 134.61 141.48L142.94 142.66L131.61 145.68L129.49 146.46L114.06 136.26C112.83 135.38 111.11 135.79 110.4 137.12C109.84 138.17 110.09 139.46 111 140.22C111.95 141.01 113.48 142.33 115.16 143.77L111.75 141.73C110.45 140.95 108.77 141.49 108.17 142.88C107.7 143.97 108.05 145.23 109.02 145.92C109.85 146.51 110.92 147.26 112.06 148.06L110.88 147.6C109.58 147.09 108.05 147.46 107.25 148.61C106.17 150.17 106.82 152.29 108.53 153L125.39 160.06C128.3 161.28 131.08 162.04 134.51 161.23L149.54 157.69L183.17 251.83L211.49 233.51V233.5Z" fill="#CD8379"/>
<path d="M193.67 199.72L201.71 214.95" stroke="#AF6A61" stroke-width="1.5" stroke-miterlimit="10"/>
<path d="M242.59 135.93L226.45 137.14C226.45 137.14 203.09 168.83 250.52 250.23L313.07 247.16L317.78 159.46L310.06 134.56H282.04L242.6 135.93H242.59Z" fill="#FEFEF4"/>
<path d="M224.28 190.06C224.28 190.06 219.63 180.27 222.62 158.59" stroke="#FACC15" stroke-width="1.55" stroke-miterlimit="10"/>
<path d="M369.46 226.33L343.49 172.69L308.17 192.7L334.71 243.81C340.16 254.37 353.73 257.62 363.37 250.66C371.05 245.12 373.63 234.84 369.46 226.33Z" fill="#CD8379"/>
<path d="M329.47 144.07C324.35 133.62 311.61 129.47 301.32 134.91C291.32 140.19 287.44 152.55 292.63 162.6L308.17 192.71L343.49 172.7L329.47 144.08V144.07Z" fill="#FEFEF4"/>
<path d="M308.17 192.7L295.34 167.84" stroke="#FACC15" stroke-width="1.55" stroke-miterlimit="10"/>
<path d="M423.68 134.56C422.89 133.41 421.35 133.05 420.05 133.55L412.51 136.49L419.6 130.49C420.77 129.5 421.1 127.74 420.22 126.49C419.2 125.05 417.25 124.83 415.96 125.88L409.37 131.19L414.99 123.84C415.92 122.62 415.87 120.83 414.73 119.8C413.43 118.61 411.48 118.82 410.43 120.11L399.33 131.63L388 128.61L396.33 127.43C397.98 127.22 399.22 125.71 398.97 123.95C398.76 122.43 397.36 121.35 395.83 121.35H387.57C382.69 121.35 377.93 123.05 374.32 126.29C374.26 126.34 374.2 126.37 374.14 126.42C369.07 130.42 370.92 138.61 370.92 138.61L339.81 226.69L370.64 240.37L388.41 145.78L399.76 145.8C400.46 145.87 401.17 145.86 401.88 145.8H401.97C403.19 145.69 404.4 145.4 405.55 144.92L422.41 138.95C424.12 138.23 424.77 136.12 423.69 134.56H423.68Z" fill="#CD8379"/>
<path d="M351.9 190.06L345.18 213.51" stroke="#AF6A61" stroke-width="1.5" stroke-miterlimit="10"/>
</svg>
