<svg width="40" height="40" viewBox="0 0 40 40" fill="none" xmlns="http://www.w3.org/2000/svg">
<path d="M40 20C40 20.93 38.04 21.71 37.91 22.6C37.78 23.49 39.44 24.82 39.19 25.69C38.94 26.56 36.83 26.76 36.46 27.59C36.09 28.42 37.31 30.15 36.82 30.92C36.33 31.69 34.26 31.27 33.67 31.97C33.08 32.67 33.78 34.67 33.09 35.27C32.4 35.87 30.54 34.88 29.78 35.38C29.02 35.88 29.14 38 28.31 38.38C27.48 38.76 25.98 37.28 25.1 37.54C24.22 37.8 23.75 39.87 22.85 40C21.95 40.13 20.92 38.28 20 38.28C19.08 38.28 18.04 40.13 17.15 40C16.26 39.87 15.76 37.8 14.9 37.54C14.04 37.28 12.51 38.76 11.69 38.38C10.87 38 10.98 35.87 10.22 35.38C9.46 34.89 7.59 35.87 6.91 35.27C6.23 34.67 6.93 32.66 6.33 31.97C5.73 31.28 3.67 31.7 3.18 30.92C2.69 30.14 3.92 28.43 3.54 27.59C3.16 26.75 1.07 26.57 0.81 25.69C0.55 24.81 2.22 23.52 2.09 22.6C1.96 21.68 0 20.93 0 20C0 19.07 1.96 18.29 2.09 17.4C2.22 16.51 0.56 15.18 0.81 14.31C1.06 13.44 3.17 13.24 3.54 12.41C3.91 11.58 2.69 9.84996 3.18 9.07996C3.67 8.30996 5.74 8.72996 6.33 8.02996C6.92 7.32996 6.22 5.32996 6.91 4.72996C7.6 4.12996 9.46 5.11996 10.22 4.61996C10.98 4.11996 10.86 1.99996 11.69 1.61996C12.52 1.23996 14.02 2.71996 14.9 2.45996C15.78 2.19996 16.25 0.139956 17.15 -4.3862e-05C18.05 -0.140044 19.08 1.71996 20 1.71996C20.92 1.71996 21.96 -0.120044 22.85 -4.3862e-05C23.74 0.119956 24.24 2.19996 25.1 2.45996C25.96 2.71996 27.49 1.23996 28.31 1.61996C29.13 1.99996 29.02 4.12996 29.78 4.61996C30.54 5.10996 32.41 4.12996 33.09 4.72996C33.77 5.32996 33.07 7.33996 33.67 8.02996C34.27 8.71996 36.33 8.29996 36.82 9.07996C37.31 9.85996 36.08 11.57 36.46 12.41C36.84 13.25 38.93 13.43 39.19 14.31C39.45 15.19 37.78 16.48 37.91 17.4C38.04 18.32 40 19.07 40 20Z" fill="#FACC15"/>
</svg>
